name Walk8.mot
datacolumns 19
datarows 12
range 2.09500000 2.10600000
endheader

                time	   L_ground_force_vx	   L_ground_force_vy	   L_ground_force_vz	   L_ground_force_px	   L_ground_force_py	   L_ground_force_pz	   R_ground_force_vx	   R_ground_force_vy	   R_ground_force_vz	   R_ground_force_px	   R_ground_force_py	   R_ground_force_pz	   L_ground_torque_x	   L_ground_torque_y	   L_ground_torque_z	   R_ground_torque_x	   R_ground_torque_y	   R_ground_torque_z	
          2.09500000	          5.66895364	         49.26877842	         -6.48452032	          0.00074926	          0.00000000	          0.00043737	         -0.00000000	          0.00000000	          0.00000000	          0.00000000	          0.00000000	          0.00000000	          0.00000000	         -0.07270933	          0.00000000	          0.00000000	         -0.00000000	          0.00000000	
          2.09600000	          5.48057383	         55.46465756	         -7.23077628	         -0.02355381	          0.00000000	         -0.00272974	         -0.00000000	          0.00000000	          0.00000000	          0.00000000	          0.00000000	          0.00000000	          0.00000000	         -0.07904444	          0.00000000	          0.00000000	         -0.00000000	          0.00000000	
          2.09700000	          5.27727618	         61.82175915	         -7.97811077	         -0.04776900	          0.00000000	         -0.00588861	         -0.00000000	          0.00000000	          0.00000000	          0.00000000	          0.00000000	          0.00000000	          0.00000000	         -0.08544137	          0.00000000	          0.00000000	         -0.00000000	          0.00000000	
          2.09800000	          5.05812629	         68.33205140	         -8.72416757	         -0.07181868	          0.00000000	         -0.00902947	         -0.00000000	          0.00000000	          0.00000000	          0.00000000	          0.00000000	          0.00000000	          0.00000000	         -0.09188337	          0.00000000	          0.00000000	         -0.00000000	          0.00000000	
          2.09900000	          4.82208802	         74.98661139	         -9.46648862	         -0.09562719	          0.00000000	         -0.01214278	         -0.00000000	          0.00000000	          0.00000000	          0.00000000	          0.00000000	          0.00000000	          0.00000000	         -0.09835237	          0.00000000	          0.00000000	         -0.00000000	          0.00000000	
          2.10000000	          4.56799956	         81.77564721	        -10.20253613	         -0.11912370	          0.00000000	         -0.01521960	         -0.00000000	          0.00000000	          0.00000000	          0.00000000	          0.00000000	          0.00000000	          0.00000000	         -0.10482893	          0.00000000	          0.00000000	         -0.00000000	          0.00000000	
          2.10100000	          4.29455198	         88.68855357	        -10.92971690	         -0.14224403	          0.00000000	         -0.01825183	         -0.00000000	          0.00000000	          0.00000000	          0.00000000	          0.00000000	          0.00000000	          0.00000000	         -0.11129224	          0.00000000	          0.00000000	         -0.00000000	          0.00000000	
          2.10200000	          4.00027765	         95.71398767	        -11.64540137	         -0.16493085	          0.00000000	         -0.02123222	         -0.00000000	          0.00000000	          0.00000000	          0.00000000	          0.00000000	          0.00000000	          0.00000000	         -0.11772035	          0.00000000	          0.00000000	         -0.00000000	          0.00000000	
          2.10300000	          3.68354558	        102.83998053	        -12.34694121	         -0.18713326	          0.00000000	         -0.02415437	         -0.00000000	          0.00000000	          0.00000000	          0.00000000	          0.00000000	          0.00000000	          0.00000000	         -0.12409043	          0.00000000	          0.00000000	         -0.00000000	          0.00000000	
          2.10400000	          3.34256155	        110.05409331	        -13.03168802	         -0.20880654	          0.00000000	         -0.02701268	         -0.00000000	          0.00000000	          0.00000000	          0.00000000	          0.00000000	          0.00000000	          0.00000000	         -0.13037923	          0.00000000	          0.00000000	         -0.00000000	          0.00000000	
          2.10500000	          2.97537379	        117.34361554	        -13.69701290	         -0.22991168	          0.00000000	         -0.02980229	         -0.00000000	          0.00000000	          0.00000000	          0.00000000	          0.00000000	          0.00000000	          0.00000000	         -0.13656364	          0.00000000	          0.00000000	         -0.00000000	          0.00000000	
          2.10600000	          2.57988553	        124.69579491	        -14.34032559	         -0.25041512	          0.00000000	         -0.03251908	         -0.00000000	          0.00000000	          0.00000000	          0.00000000	          0.00000000	          0.00000000	          0.00000000	         -0.14262141	          0.00000000	          0.00000000	         -0.00000000	          0.00000000	
